<svg xmlns="http://www.w3.org/2000/svg" viewBox="0 0 64 64">
  <defs>
    <radialGradient id="acid_splash-bg" cx=".48" cy=".42" r=".9">
      <stop offset="0" stop-color="#23401a"/><stop offset=".5" stop-color="#12240e"/><stop offset="1" stop-color="#0a1508"/>
    </radialGradient>
    <radialGradient id="acid_splash-halo" cx=".5" cy=".5" r=".5">
      <stop offset="0" stop-color="#b8e03c" stop-opacity=".5"/><stop offset="1" stop-color="#b8e03c" stop-opacity="0"/>
    </radialGradient>
    <radialGradient id="acid_splash-orb" cx=".38" cy=".32" r=".85">
      <stop offset="0" stop-color="#f2ffcf"/><stop offset=".35" stop-color="#e6ff8a"/><stop offset=".7" stop-color="#8fc22c"/><stop offset="1" stop-color="#4c7714"/>
    </radialGradient>
    <radialGradient id="acid_splash-vig" cx=".5" cy=".46" r=".72">
      <stop offset=".48" stop-color="#000" stop-opacity="0"/><stop offset="1" stop-color="#000" stop-opacity=".6"/>
    </radialGradient>
  </defs>
  <rect width="64" height="64" fill="url(#acid_splash-bg)"/>
  <rect width="64" height="64" fill="url(#acid_splash-halo)"/>
  <ellipse cx="32" cy="46" rx="17" ry="5" fill="#8fc22c" opacity=".2"/>
  <circle cx="32" cy="33" r="15" fill="#b8e03c" opacity=".16"/>
  <path d="M32 33 l5 -13 3 12 z" fill="#c4e84c" opacity=".55"/>
  <path d="M32 33 l-6 -11 2 12 z" fill="#a8d63c" opacity=".5"/>
  <circle cx="32" cy="33" r="12.5" fill="url(#acid_splash-orb)"/>
  <path d="M22 30 A12.5 12.5 0 0 0 43 38 A14 8 0 0 1 22 30 Z" fill="#3f6610" opacity=".45"/>
  <ellipse cx="27" cy="27" rx="4" ry="2.6" fill="#fff" opacity=".6" transform="rotate(-30 27 27)"/>
  <circle cx="45" cy="20" r="2.8" fill="url(#acid_splash-orb)"/>
  <circle cx="18" cy="24" r="2" fill="#c4e84c" opacity=".9"/>
  <circle cx="48" cy="42" r="1.6" fill="#e6ff8a" opacity=".85"/>
  <circle cx="15" cy="41" r="1.1" fill="#a8d63c" opacity=".7"/>
  <circle cx="41" cy="12" r=".9" fill="#e6ff8a" opacity=".8"/>
  <rect width="64" height="64" fill="url(#acid_splash-vig)"/>
</svg>
