<svg xmlns="http://www.w3.org/2000/svg" viewBox="0 0 64 64">
  <defs>
    <radialGradient id="alter_self-bg" cx=".5" cy=".42" r=".9">
      <stop offset="0" stop-color="#3a2410"/><stop offset=".5" stop-color="#1f1408"/><stop offset="1" stop-color="#100a04"/>
    </radialGradient>
    <radialGradient id="alter_self-halo" cx=".5" cy=".45" r=".5">
      <stop offset="0" stop-color="#ffb02e" stop-opacity=".45"/><stop offset="1" stop-color="#ffb02e" stop-opacity="0"/>
    </radialGradient>
    <linearGradient id="alter_self-left" x1="0" y1="0" x2="1" y2="1">
      <stop offset="0" stop-color="#ffe6b0"/><stop offset=".5" stop-color="#ffb02e"/><stop offset="1" stop-color="#c96f14"/>
    </linearGradient>
    <linearGradient id="alter_self-right" x1="1" y1="0" x2="0" y2="1">
      <stop offset="0" stop-color="#3a6a3e"/><stop offset=".5" stop-color="#5f9a4a"/><stop offset="1" stop-color="#2c5220"/>
    </linearGradient>
    <radialGradient id="alter_self-vig" cx=".5" cy=".46" r=".72">
      <stop offset=".48" stop-color="#000" stop-opacity="0"/><stop offset="1" stop-color="#000" stop-opacity=".6"/>
    </radialGradient>
  </defs>
  <rect width="64" height="64" fill="url(#alter_self-bg)"/>
  <rect width="64" height="64" fill="url(#alter_self-halo)"/>
  <circle cx="32" cy="32" r="20" fill="#ffb02e" opacity=".14"/>
  <path d="M32 10 C22 10 15 20 15 32 C15 44 22 55 32 55 Z" fill="url(#alter_self-left)"/>
  <path d="M32 10 C42 10 49 20 49 32 C49 44 42 55 32 55 Z" fill="url(#alter_self-right)"/>
  <path d="M32 8 L32 57" stroke="#fffbe8" stroke-width="1.6" opacity=".85"/>
  <path d="M32 8 L32 57" stroke="#fff" stroke-width=".6" opacity=".5"/>
  <ellipse cx="24" cy="27" rx="2" ry="2.7" fill="#3a2008"/>
  <ellipse cx="23.4" cy="26.2" rx=".7" ry="1" fill="#ffe6b0"/>
  <path d="M40 24 L44 27 L40 30" fill="none" stroke="#d8ffc0" stroke-width="1.6" stroke-linecap="round" stroke-linejoin="round"/>
  <path d="M22 40 C26 43 30 43 32 42" fill="none" stroke="#3a2008" stroke-width="1.5" stroke-linecap="round"/>
  <path d="M42 40 C38 43 34 43 32 42" fill="none" stroke="#d8ffc0" stroke-width="1.5" stroke-linecap="round" opacity=".8"/>
  <ellipse cx="24" cy="18" rx="3" ry="1.5" fill="#fffbe8" opacity=".5" transform="rotate(20 24 18)"/>
  <path d="M45 18 l1 2.4 2.4 1 -2.4 1 -1 2.4 -1-2.4 -2.4-1 2.4-1 Z" fill="#d8ffc0" opacity=".85"/>
  <path d="M19 44 l-1 2.4 -2.4 1 2.4 1 1 2.4 1-2.4 2.4-1 -2.4-1 Z" fill="#ffe0a0" opacity=".85"/>
  <circle cx="50" cy="30" r="1.2" fill="#c6f593" opacity=".7"/>
  <circle cx="14" cy="30" r="1.1" fill="#ffe6b0" opacity=".7"/>
  <rect width="64" height="64" fill="url(#alter_self-vig)"/>
</svg>
