<svg xmlns="http://www.w3.org/2000/svg" viewBox="0 0 64 64">
  <defs>
    <radialGradient id="animate_objects-bg" cx=".5" cy=".4" r=".9">
      <stop offset="0" stop-color="#3a2410"/><stop offset=".5" stop-color="#20140a"/><stop offset="1" stop-color="#100a04"/>
    </radialGradient>
    <radialGradient id="animate_objects-halo" cx=".5" cy=".4" r=".52">
      <stop offset="0" stop-color="#ffb02e" stop-opacity=".5"/><stop offset="1" stop-color="#ffb02e" stop-opacity="0"/>
    </radialGradient>
    <linearGradient id="animate_objects-blade" x1="0" y1="0" x2="1" y2="1">
      <stop offset="0" stop-color="#eef3f8"/><stop offset=".5" stop-color="#a9b6c4"/><stop offset="1" stop-color="#5a6572"/>
    </linearGradient>
    <radialGradient id="animate_objects-eye" cx=".5" cy=".5" r=".6">
      <stop offset="0" stop-color="#fff7d6"/><stop offset=".5" stop-color="#ffb02e"/><stop offset="1" stop-color="#c05a10"/>
    </radialGradient>
    <radialGradient id="animate_objects-vig" cx=".5" cy=".44" r=".72">
      <stop offset=".48" stop-color="#000" stop-opacity="0"/><stop offset="1" stop-color="#000" stop-opacity=".6"/>
    </radialGradient>
  </defs>
  <rect width="64" height="64" fill="url(#animate_objects-bg)"/>
  <rect width="64" height="64" fill="url(#animate_objects-halo)"/>
  <polygon points="30,4 34,4 35,40 32,46 29,40" fill="#a9b6c4" opacity=".2"/>
  <polygon points="30.5,6 33.5,6 34,39 32,44 30,39" fill="url(#animate_objects-blade)" stroke="#3a424c" stroke-width=".8"/>
  <line x1="32" y1="7" x2="32.5" y2="38" stroke="#fbfdff" stroke-width="1" opacity=".7"/>
  <rect x="24" y="44" width="16" height="3.4" rx="1.5" fill="#7a5a34" stroke="#3a2712" stroke-width=".8"/>
  <rect x="30" y="46" width="4" height="12" rx="1.5" fill="#8a6636" stroke="#3a2712" stroke-width=".8"/>
  <circle cx="32" cy="24" r="6.5" fill="#ffb02e" opacity=".25"/>
  <circle cx="32" cy="24" r="4.4" fill="url(#animate_objects-eye)"/>
  <ellipse cx="32" cy="24" rx="1.6" ry="3.4" fill="#2a1406"/>
  <circle cx="30.6" cy="22.6" r="1" fill="#fff" opacity=".85"/>
  <path d="M20 22 C22 19 24 18 26 18 M44 22 C42 19 40 18 38 18" fill="none" stroke="#ffe1a0" stroke-width="1.3" opacity=".55"/>
  <circle cx="51" cy="17" r="1.4" fill="#ffe1a0" opacity=".8"/>
  <circle cx="14" cy="30" r="1.1" fill="#ffcf7a" opacity=".7"/>
  <circle cx="49" cy="46" r=".8" fill="#ffb02e" opacity=".7"/>
  <rect width="64" height="64" fill="url(#animate_objects-vig)"/>
</svg>
