<svg xmlns="http://www.w3.org/2000/svg" viewBox="0 0 64 64">
  <defs>
    <radialGradient id="death_ward-bg" cx=".5" cy=".4" r=".9">
      <stop offset="0" stop-color="#123556"/><stop offset=".5" stop-color="#0b2039"/><stop offset="1" stop-color="#050d1a"/>
    </radialGradient>
    <radialGradient id="death_ward-halo" cx=".5" cy=".44" r=".55">
      <stop offset="0" stop-color="#ffe9a8" stop-opacity=".5"/><stop offset="1" stop-color="#ffe9a8" stop-opacity="0"/>
    </radialGradient>
    <radialGradient id="death_ward-skull" cx=".42" cy=".34" r=".9">
      <stop offset="0" stop-color="#ffffff"/><stop offset=".5" stop-color="#e2eaf4"/><stop offset="1" stop-color="#8fa6c4"/>
    </radialGradient>
    <radialGradient id="death_ward-vig" cx=".5" cy=".45" r=".72">
      <stop offset=".48" stop-color="#000" stop-opacity="0"/><stop offset="1" stop-color="#000" stop-opacity=".6"/>
    </radialGradient>
  </defs>
  <rect width="64" height="64" fill="url(#death_ward-bg)"/>
  <rect width="64" height="64" fill="url(#death_ward-halo)"/>
  <path d="M32 8 C42 10 50 14 50 24 C50 34 44 40 44 48 C44 52 40 54 32 54 C24 54 20 52 20 48 C20 40 14 34 14 24 C14 14 22 10 32 8 Z" fill="#ffe9a8" opacity=".18"/>
  <path d="M14 26 C14 34 18 39 32 46 C46 39 50 34 50 26 C50 16 42 12 32 12 C22 12 14 16 14 26 Z" fill="none" stroke="#ffdc7a" stroke-width="1.6" opacity=".6"/>
  <path d="M32 13 C22 13 15.5 19 15.5 27.5 C15.5 33 18.5 37 22.5 40 L22.5 44 C22.5 46 24.5 47 26.5 46 L27.5 43 C28.5 43.5 29.5 43.7 30.5 43.8 L30.5 47 C30.5 48.5 33.5 48.5 33.5 47 L33.5 43.8 C34.5 43.7 35.5 43.5 36.5 43 L37.5 46 C39.5 47 41.5 46 41.5 44 L41.5 40 C45.5 37 48.5 33 48.5 27.5 C48.5 19 42 13 32 13 Z" fill="url(#death_ward-skull)"/>
  <ellipse cx="25" cy="27" rx="4.2" ry="5" fill="#0a1f30"/>
  <ellipse cx="39" cy="27" rx="4.2" ry="5" fill="#0a1f30"/>
  <ellipse cx="25" cy="26" rx="1.7" ry="2" fill="#ffe08a" opacity=".9"/>
  <ellipse cx="39" cy="26" rx="1.7" ry="2" fill="#ffe08a" opacity=".9"/>
  <path d="M32 33 l-2.5 5 h5 Z" fill="#33456a"/>
  <ellipse cx="26" cy="19" rx="4" ry="2" fill="#fff" opacity=".55" transform="rotate(-20 26 19)"/>
  <path d="M22 42 A12 10 0 0 0 42 42" fill="none" stroke="#5a7092" stroke-width="1.2" opacity=".4"/>
  <circle cx="49" cy="16" r="1.4" fill="#fff3c4" opacity=".85"/>
  <circle cx="15" cy="18" r="1.1" fill="#ffe9a8" opacity=".7"/>
  <circle cx="48" cy="44" r="1" fill="#ffdc7a" opacity=".6"/>
  <rect width="64" height="64" fill="url(#death_ward-vig)"/>
</svg>
