<svg xmlns="http://www.w3.org/2000/svg" viewBox="0 0 64 64">
  <defs>
    <radialGradient id="divine_word-bg" cx=".5" cy=".4" r=".9">
      <stop offset="0" stop-color="#43370f"/><stop offset=".5" stop-color="#221a08"/><stop offset="1" stop-color="#12100a"/>
    </radialGradient>
    <radialGradient id="divine_word-halo" cx=".5" cy=".44" r=".55">
      <stop offset="0" stop-color="#ffe9a8" stop-opacity=".6"/><stop offset="1" stop-color="#ffe9a8" stop-opacity="0"/>
    </radialGradient>
    <radialGradient id="divine_word-core" cx=".42" cy=".38" r=".9">
      <stop offset="0" stop-color="#fffef7"/><stop offset=".4" stop-color="#fff3c4"/><stop offset=".8" stop-color="#ffd54d"/><stop offset="1" stop-color="#c98c18"/>
    </radialGradient>
    <radialGradient id="divine_word-vig" cx=".5" cy=".45" r=".72">
      <stop offset=".48" stop-color="#000" stop-opacity="0"/><stop offset="1" stop-color="#000" stop-opacity=".62"/>
    </radialGradient>
  </defs>
  <rect width="64" height="64" fill="url(#divine_word-bg)"/>
  <rect width="64" height="64" fill="url(#divine_word-halo)"/>
  <g stroke="#ffe9a8" fill="none" stroke-linecap="round">
    <path d="M32 32 A22 22 0 0 1 50 22" stroke-width="1.4" opacity=".3"/>
    <path d="M32 32 A22 22 0 0 0 14 22" stroke-width="1.4" opacity=".3"/>
    <path d="M32 32 A22 22 0 0 1 48 45" stroke-width="1.4" opacity=".3"/>
    <path d="M32 32 A22 22 0 0 0 16 45" stroke-width="1.4" opacity=".3"/>
  </g>
  <g stroke="#fff3c4" stroke-width="2.4" stroke-linecap="round" opacity=".85">
    <line x1="32" y1="7" x2="32" y2="18"/>
    <line x1="32" y1="46" x2="32" y2="57"/>
    <line x1="7" y1="32" x2="18" y2="32"/>
    <line x1="46" y1="32" x2="57" y2="32"/>
    <line x1="15" y1="15" x2="22" y2="22"/>
    <line x1="49" y1="15" x2="42" y2="22"/>
    <line x1="15" y1="49" x2="22" y2="42"/>
    <line x1="49" y1="49" x2="42" y2="42"/>
  </g>
  <circle cx="32" cy="32" r="13" fill="#ffe9a8" opacity=".28"/>
  <circle cx="32" cy="32" r="9.5" fill="url(#divine_word-core)"/>
  <path d="M32 24 L34 30.5 L40.5 32 L34 33.5 L32 40 L30 33.5 L23.5 32 L30 30.5 Z" fill="#fffef7" opacity=".9"/>
  <ellipse cx="28.5" cy="28.5" rx="2.4" ry="1.6" fill="#fff" opacity=".7" transform="rotate(-30 28.5 28.5)"/>
  <circle cx="52" cy="14" r="1.4" fill="#fff3c4"/>
  <circle cx="13" cy="16" r="1.1" fill="#ffe9a8" opacity=".8"/>
  <circle cx="50" cy="50" r="1" fill="#ffd97a" opacity=".7"/>
  <rect width="64" height="64" fill="url(#divine_word-vig)"/>
</svg>
