<svg xmlns="http://www.w3.org/2000/svg" viewBox="0 0 64 64">
  <defs>
    <radialGradient id="hypnotic_pattern-bg" cx=".5" cy=".45" r=".9">
      <stop offset="0" stop-color="#0a3a42"/><stop offset=".5" stop-color="#0a222a"/><stop offset="1" stop-color="#05141a"/>
    </radialGradient>
    <radialGradient id="hypnotic_pattern-halo" cx=".5" cy=".5" r=".5">
      <stop offset="0" stop-color="#5cf0d8" stop-opacity=".5"/><stop offset="1" stop-color="#5cf0d8" stop-opacity="0"/>
    </radialGradient>
    <radialGradient id="hypnotic_pattern-core" cx=".42" cy=".38" r=".8">
      <stop offset="0" stop-color="#fffdf0"/><stop offset=".4" stop-color="#c8a0ff"/><stop offset=".8" stop-color="#3ee6c4"/><stop offset="1" stop-color="#127a68"/>
    </radialGradient>
    <radialGradient id="hypnotic_pattern-vig" cx=".5" cy=".46" r=".72">
      <stop offset=".48" stop-color="#000" stop-opacity="0"/><stop offset="1" stop-color="#000" stop-opacity=".62"/>
    </radialGradient>
  </defs>
  <rect width="64" height="64" fill="url(#hypnotic_pattern-bg)"/>
  <rect width="64" height="64" fill="url(#hypnotic_pattern-halo)"/>
  <path d="M32 32 C32 18 15 19 15 33 C15 51 49 50 49 32 C49 12 12 12 12 33 C12 55 53 55 53 32" fill="none" stroke="#3ee6c4" stroke-width="3.4" opacity=".18"/>
  <path d="M32 32 C32 20 18 20.5 18 32 C18 47 46 46.5 46 32 C46 15 15 15.5 15 32 C15 52 51 51.5 51 32" fill="none" stroke="#3ee6c4" stroke-width="2.2" opacity=".85"/>
  <path d="M32 32 C32 23 22 23.5 22 32 C22 43 42 42.5 42 32 C42 18 17 18.5 17 32 C17 49 49 48.5 49 32" fill="none" stroke="#c8a0ff" stroke-width="1.6" opacity=".75"/>
  <path d="M32 32 C32 26 26 26 26 32 C26 39 38 39 38 32 C38 22 21 22.5 21 32" fill="none" stroke="#9ff5e4" stroke-width="1.3" opacity=".6"/>
  <circle cx="32" cy="32" r="10" fill="#3ee6c4" opacity=".16"/>
  <circle cx="32" cy="32" r="4.4" fill="url(#hypnotic_pattern-core)"/>
  <circle cx="32" cy="32" r="1.7" fill="#fff"/>
  <ellipse cx="30" cy="30" rx="1.8" ry="1.1" fill="#fff" opacity=".6" transform="rotate(-30 30 30)"/>
  <circle cx="51" cy="20" r="1.4" fill="#c8fff0" opacity=".85"/>
  <circle cx="13" cy="45" r="1.2" fill="#c8a0ff" opacity=".75"/>
  <circle cx="49" cy="48" r="1" fill="#6fefd6" opacity=".6"/>
  <circle cx="15" cy="17" r=".8" fill="#eafff9" opacity=".65"/>
  <rect width="64" height="64" fill="url(#hypnotic_pattern-vig)"/>
</svg>
