<svg xmlns="http://www.w3.org/2000/svg" viewBox="0 0 64 64">
  <defs>
    <radialGradient id="unseen_servant-bg" cx=".5" cy=".38" r=".9">
      <stop offset="0" stop-color="#2a1a4a"/><stop offset=".5" stop-color="#180e2c"/><stop offset="1" stop-color="#0a0618"/>
    </radialGradient>
    <radialGradient id="unseen_servant-halo" cx=".5" cy=".4" r=".52">
      <stop offset="0" stop-color="#b98cff" stop-opacity=".5"/><stop offset="1" stop-color="#b98cff" stop-opacity="0"/>
    </radialGradient>
    <radialGradient id="unseen_servant-body" cx=".5" cy=".3" r=".8">
      <stop offset="0" stop-color="#f0e8ff" stop-opacity=".85"/><stop offset=".55" stop-color="#b98cff" stop-opacity=".55"/><stop offset="1" stop-color="#6a3fb0" stop-opacity=".18"/>
    </radialGradient>
    <radialGradient id="unseen_servant-vig" cx=".5" cy=".45" r=".72">
      <stop offset=".48" stop-color="#000" stop-opacity="0"/><stop offset="1" stop-color="#000" stop-opacity=".6"/>
    </radialGradient>
  </defs>
  <rect width="64" height="64" fill="url(#unseen_servant-bg)"/>
  <rect width="64" height="64" fill="url(#unseen_servant-halo)"/>
  <ellipse cx="32" cy="30" rx="17" ry="20" fill="#b98cff" opacity=".14"/>
  <path d="M32 11 C42 11 47 21 45.5 33 C49 39 45 47 41 45 C40 51 36 53 32 51 C28 53 24 51 23 45 C19 47 15 39 18.5 33 C17 21 22 11 32 11 Z" fill="url(#unseen_servant-body)"/>
  <path d="M32 13 C41 13 45 22 44 33" fill="none" stroke="#f0e8ff" stroke-width="1.3" opacity=".55"/>
  <ellipse cx="27" cy="28" rx="2.4" ry="3.2" fill="#f0e8ff" opacity=".9"/>
  <ellipse cx="37" cy="28" rx="2.4" ry="3.2" fill="#f0e8ff" opacity=".9"/>
  <ellipse cx="26.4" cy="27" rx=".9" ry="1.2" fill="#2a1a4a"/>
  <ellipse cx="37.4" cy="27" rx=".9" ry="1.2" fill="#2a1a4a"/>
  <path d="M13 34 C9 32 7 28 9 25" fill="none" stroke="#d8c8ff" stroke-width="1.6" stroke-linecap="round" opacity=".7"/>
  <path d="M51 34 C55 32 57 28 55 25" fill="none" stroke="#d8c8ff" stroke-width="1.6" stroke-linecap="round" opacity=".7"/>
  <ellipse cx="27" cy="20" rx="4" ry="2" fill="#fff" opacity=".4" transform="rotate(-18 27 20)"/>
  <circle cx="50" cy="17" r="1.4" fill="#e8dcff" opacity=".8"/>
  <circle cx="14" cy="20" r="1.1" fill="#b98cff" opacity=".65"/>
  <circle cx="49" cy="44" r=".9" fill="#e8dcff" opacity=".6"/>
  <rect width="64" height="64" fill="url(#unseen_servant-vig)"/>
</svg>
